<?xml version="1.0" encoding="utf-8"?>
<!-- Generator: Adobe Illustrator 21.0.2, SVG Export Plug-In . SVG Version: 6.00 Build 0)  -->
<svg version="1.1" id="Слой_1" xmlns="http://www.w3.org/2000/svg" xmlns:xlink="http://www.w3.org/1999/xlink" x="0px" y="0px"
	 viewBox="0 0 45.8 45.8" style="enable-background:new 0 0 45.8 45.8;" xml:space="preserve">
<style type="text/css">
	.st0{fill:#004b88;}
</style>
<g>
	<circle class="st0" cx="22.9" cy="22.9" r="2.6"/>
	<rect x="21.4" class="st0" width="3.1" height="7.6"/>
	<rect x="21.4" y="38.3" class="st0" width="3.1" height="7.6"/>
	<rect y="21.4" class="st0" width="7.6" height="3.1"/>
	<rect x="38.3" y="21.4" class="st0" width="7.6" height="3.1"/>
	<g>
		<path class="st0" d="M5.3,20v-9c0-3.1,2.6-5.7,5.7-5.7h9V1.9h-9.6c-4.7,0-8.5,3.8-8.5,8.5V20H5.3z"/>
		<path class="st0" d="M25.9,5.3h9c3.1,0,5.7,2.6,5.7,5.7v9h3.4v-9.6c0-4.7-3.8-8.5-8.5-8.5h-9.6V5.3z"/>
		<path class="st0" d="M40.6,25.9v9c0,3.1-2.6,5.7-5.7,5.7h-9v3.4h9.6c4.7,0,8.5-3.8,8.5-8.5v-9.6H40.6z"/>
		<path class="st0" d="M20,40.6h-9c-3.1,0-5.7-2.6-5.7-5.7v-9H1.9v9.6c0,4.7,3.8,8.5,8.5,8.5H20V40.6z"/>
	</g>
	<polygon class="st0" points="22.9,11.7 25.7,6.9 20.1,6.9 	"/>
</g>
</svg>
