<?xml version="1.0" encoding="utf-8"?>
<!-- Generator: Adobe Illustrator 21.0.2, SVG Export Plug-In . SVG Version: 6.00 Build 0)  -->
<svg version="1.1" id="Слой_1" xmlns="http://www.w3.org/2000/svg" xmlns:xlink="http://www.w3.org/1999/xlink" x="0px" y="0px"
	 viewBox="0 0 40.5 40.5" style="enable-background:new 0 0 40.5 40.5;" xml:space="preserve">
<style type="text/css">
	.st0{fill:#004b88;}
</style>
<circle class="st0" cx="20.3" cy="20.2" r="2.4"/>
<path class="st0" d="M20.3,33.3c-7.2,0-13.1-5.9-13.1-13.1S13,7.2,20.3,7.2S33.3,13,33.3,20.3S27.5,33.3,20.3,33.3z M20.3,8.2
	c-6.7,0-12.1,5.4-12.1,12.1s5.4,12.1,12.1,12.1s12.1-5.4,12.1-12.1S26.9,8.2,20.3,8.2z"/>
<path class="st0" d="M20.3,36.6c-9,0-16.4-7.4-16.4-16.4S11.3,3.8,20.3,3.8s16.4,7.4,16.4,16.4S29.4,36.6,20.3,36.6z M20.3,5.3
	C12.1,5.3,5.4,12,5.4,20.2s6.7,14.9,14.9,14.9s14.9-6.7,14.9-14.9S28.5,5.3,20.3,5.3z"/>
<path class="st0" d="M20.3,40.5C9.1,40.5,0,31.4,0,20.3S9.1,0,20.3,0s20.3,9.1,20.3,20.3S31.4,40.5,20.3,40.5z M20.3,2
	C10.2,2,2,10.2,2,20.3s8.2,18.3,18.3,18.3s18.3-8.2,18.3-18.3S30.3,2,20.3,2z"/>
</svg>
