<?xml version="1.0" encoding="utf-8"?>
<!-- Generator: Adobe Illustrator 21.0.2, SVG Export Plug-In . SVG Version: 6.00 Build 0)  -->
<svg version="1.1" id="Слой_1" xmlns="http://www.w3.org/2000/svg" xmlns:xlink="http://www.w3.org/1999/xlink" x="0px" y="0px"
	 viewBox="0 0 45.8 45.8" style="enable-background:new 0 0 45.8 45.8;" xml:space="preserve">
<style type="text/css">
	.st0{fill:#004b88;}
</style>
<circle class="st0" cx="22.9" cy="22.9" r="3"/>
<rect x="20.5" class="st0" width="4.7" height="10.5"/>
<rect x="20.5" y="35.3" class="st0" width="4.7" height="10.5"/>
<g>
	<path class="st0" d="M8.8,29.1L8.8,29.1l0-2.9H1.9v1v1.9v6.3c0,4.7,3.8,8.5,8.5,8.5h9.2v-6.7c0-0.1,0-0.1,0-0.2H8.8V29.1z"/>
	<path class="st0" d="M8.8,19.6v-0.9h0V8.8h10.8c0-0.1,0-0.1,0-0.2V1.9h-9.2c-4.7,0-8.5,3.8-8.5,8.5v8.3v0.9H8.8z"/>
</g>
<g>
	<path class="st0" d="M37,18.7L37,18.7l0,0.9h6.9v-0.9v-8.3c0-4.7-3.8-8.5-8.5-8.5h-9.2v6.7c0,0.1,0,0.1,0,0.2H37V18.7z"/>
	<path class="st0" d="M37,26.2v2.9h0V37H26.2c0,0.1,0,0.1,0,0.2v6.7h9.2c4.7,0,8.5-3.8,8.5-8.5v-6.3v-1.9v-1H37z"/>
</g>
<rect x="2.9" y="17.7" transform="matrix(6.123234e-17 -1 1 6.123234e-17 -17.6563 28.1146)" class="st0" width="4.7" height="10.5"/>
<rect x="38.2" y="17.7" transform="matrix(6.123234e-17 -1 1 6.123234e-17 17.6563 63.4271)" class="st0" width="4.7" height="10.5"/>
</svg>
